<svg xmlns="http://www.w3.org/2000/svg" xmlns:xlink="http://www.w3.org/1999/xlink" width="180" zoomAndPan="magnify" viewBox="0 0 135 44.999999" height="60" preserveAspectRatio="xMidYMid meet" version="1.0"><defs><g/></defs><g fill="#f7961b" fill-opacity="1"><g transform="translate(0.0914077, 32.903895)"><g><path d="M 1.5625 -21.453125 L 8.21875 -21.453125 C 10.226562 -21.453125 11.828125 -21.019531 13.015625 -20.15625 C 14.210938 -19.300781 14.8125 -17.910156 14.8125 -15.984375 C 14.8125 -13.835938 13.921875 -12.304688 12.140625 -11.390625 C 15.191406 -10.847656 16.71875 -9.046875 16.71875 -5.984375 C 16.71875 -4.179688 16.09375 -2.734375 14.84375 -1.640625 C 13.59375 -0.546875 11.878906 0 9.703125 0 L 1.5625 0 Z M 6.453125 -13.046875 L 6.84375 -13.046875 C 7.925781 -13.046875 8.738281 -13.238281 9.28125 -13.625 C 9.820312 -14.007812 10.09375 -14.632812 10.09375 -15.5 C 10.09375 -16.957031 9.007812 -17.6875 6.84375 -17.6875 L 6.453125 -17.6875 Z M 6.453125 -3.765625 L 7.984375 -3.765625 C 10.367188 -3.765625 11.5625 -4.5625 11.5625 -6.15625 C 11.5625 -7.113281 11.265625 -7.800781 10.671875 -8.21875 C 10.078125 -8.632812 9.179688 -8.84375 7.984375 -8.84375 L 6.453125 -8.84375 Z M 6.453125 -3.765625 "/></g></g></g><g fill="#f7961b" fill-opacity="1"><g transform="translate(17.40222, 32.903895)"><g><path d="M 15.046875 -6.03125 L 5.375 -6.03125 C 5.375 -5.09375 5.675781 -4.398438 6.28125 -3.953125 C 6.894531 -3.503906 7.554688 -3.28125 8.265625 -3.28125 C 9.015625 -3.28125 9.601562 -3.378906 10.03125 -3.578125 C 10.46875 -3.773438 10.960938 -4.171875 11.515625 -4.765625 L 14.84375 -3.09375 C 13.457031 -0.769531 11.15625 0.390625 7.9375 0.390625 C 5.914062 0.390625 4.1875 -0.296875 2.75 -1.671875 C 1.3125 -3.054688 0.59375 -4.71875 0.59375 -6.65625 C 0.59375 -8.59375 1.3125 -10.253906 2.75 -11.640625 C 4.1875 -13.035156 5.914062 -13.734375 7.9375 -13.734375 C 10.050781 -13.734375 11.769531 -13.117188 13.09375 -11.890625 C 14.414062 -10.671875 15.078125 -8.925781 15.078125 -6.65625 C 15.078125 -6.34375 15.066406 -6.132812 15.046875 -6.03125 Z M 5.515625 -8.578125 L 10.578125 -8.578125 C 10.472656 -9.273438 10.195312 -9.804688 9.75 -10.171875 C 9.3125 -10.546875 8.75 -10.734375 8.0625 -10.734375 C 7.300781 -10.734375 6.691406 -10.535156 6.234375 -10.140625 C 5.785156 -9.742188 5.546875 -9.222656 5.515625 -8.578125 Z M 5.515625 -8.578125 "/></g></g></g><g fill="#f7961b" fill-opacity="1"><g transform="translate(33.075521, 32.903895)"><g><path d="M 2.46875 -1.640625 C 1.21875 -3.003906 0.59375 -4.675781 0.59375 -6.65625 C 0.59375 -8.632812 1.21875 -10.304688 2.46875 -11.671875 C 3.71875 -13.046875 5.304688 -13.734375 7.234375 -13.734375 C 8.992188 -13.734375 10.445312 -13.175781 11.59375 -12.0625 L 11.59375 -22.359375 L 16.203125 -22.359375 L 16.203125 0 L 11.640625 0 L 11.640625 -1.515625 L 11.59375 -1.515625 C 10.445312 -0.242188 8.992188 0.390625 7.234375 0.390625 C 5.304688 0.390625 3.71875 -0.285156 2.46875 -1.640625 Z M 6.375 -8.90625 C 5.78125 -8.320312 5.484375 -7.570312 5.484375 -6.65625 C 5.484375 -5.738281 5.769531 -4.988281 6.34375 -4.40625 C 6.914062 -3.820312 7.671875 -3.53125 8.609375 -3.53125 C 9.503906 -3.53125 10.242188 -3.820312 10.828125 -4.40625 C 11.410156 -5 11.703125 -5.75 11.703125 -6.65625 C 11.703125 -7.570312 11.398438 -8.320312 10.796875 -8.90625 C 10.203125 -9.5 9.472656 -9.796875 8.609375 -9.796875 C 7.722656 -9.796875 6.976562 -9.5 6.375 -8.90625 Z M 6.375 -8.90625 "/></g></g></g><g fill="#f7961b" fill-opacity="1"><g transform="translate(50.828202, 32.903895)"><g><path d="M 1.5625 0 L 1.5625 -13.34375 L 6.15625 -13.34375 L 6.15625 -11.9375 L 6.21875 -11.9375 C 7.414062 -13.132812 8.6875 -13.734375 10.03125 -13.734375 C 11 -13.734375 11.910156 -13.53125 12.765625 -13.125 C 13.617188 -12.726562 14.257812 -12.113281 14.6875 -11.28125 C 16.039062 -12.914062 17.515625 -13.734375 19.109375 -13.734375 C 20.523438 -13.734375 21.742188 -13.332031 22.765625 -12.53125 C 23.796875 -11.738281 24.3125 -10.488281 24.3125 -8.78125 L 24.3125 0 L 19.703125 0 L 19.703125 -7.546875 C 19.703125 -8.253906 19.503906 -8.84375 19.109375 -9.3125 C 18.722656 -9.789062 18.144531 -10.03125 17.375 -10.03125 C 16.695312 -10.03125 16.175781 -9.828125 15.8125 -9.421875 C 15.457031 -9.015625 15.265625 -8.523438 15.234375 -7.953125 L 15.234375 0 L 10.640625 0 L 10.640625 -7.546875 C 10.640625 -8.253906 10.441406 -8.84375 10.046875 -9.3125 C 9.660156 -9.789062 9.078125 -10.03125 8.296875 -10.03125 C 7.585938 -10.03125 7.050781 -9.804688 6.6875 -9.359375 C 6.332031 -8.921875 6.15625 -8.398438 6.15625 -7.796875 L 6.15625 0 Z M 1.5625 0 "/></g></g></g><g fill="#f7961b" fill-opacity="1"><g transform="translate(76.430533, 32.903895)"><g><path d="M 15.046875 -6.03125 L 5.375 -6.03125 C 5.375 -5.09375 5.675781 -4.398438 6.28125 -3.953125 C 6.894531 -3.503906 7.554688 -3.28125 8.265625 -3.28125 C 9.015625 -3.28125 9.601562 -3.378906 10.03125 -3.578125 C 10.46875 -3.773438 10.960938 -4.171875 11.515625 -4.765625 L 14.84375 -3.09375 C 13.457031 -0.769531 11.15625 0.390625 7.9375 0.390625 C 5.914062 0.390625 4.1875 -0.296875 2.75 -1.671875 C 1.3125 -3.054688 0.59375 -4.71875 0.59375 -6.65625 C 0.59375 -8.59375 1.3125 -10.253906 2.75 -11.640625 C 4.1875 -13.035156 5.914062 -13.734375 7.9375 -13.734375 C 10.050781 -13.734375 11.769531 -13.117188 13.09375 -11.890625 C 14.414062 -10.671875 15.078125 -8.925781 15.078125 -6.65625 C 15.078125 -6.34375 15.066406 -6.132812 15.046875 -6.03125 Z M 5.515625 -8.578125 L 10.578125 -8.578125 C 10.472656 -9.273438 10.195312 -9.804688 9.75 -10.171875 C 9.3125 -10.546875 8.75 -10.734375 8.0625 -10.734375 C 7.300781 -10.734375 6.691406 -10.535156 6.234375 -10.140625 C 5.785156 -9.742188 5.546875 -9.222656 5.515625 -8.578125 Z M 5.515625 -8.578125 "/></g></g></g><g fill="#f7961b" fill-opacity="1"><g transform="translate(92.103834, 32.903895)"><g><path d="M 1.5625 0 L 1.5625 -13.34375 L 6.15625 -13.34375 L 6.15625 -11.9375 L 6.21875 -11.9375 C 7.414062 -13.132812 8.6875 -13.734375 10.03125 -13.734375 C 11 -13.734375 11.910156 -13.53125 12.765625 -13.125 C 13.617188 -12.726562 14.257812 -12.113281 14.6875 -11.28125 C 16.039062 -12.914062 17.515625 -13.734375 19.109375 -13.734375 C 20.523438 -13.734375 21.742188 -13.332031 22.765625 -12.53125 C 23.796875 -11.738281 24.3125 -10.488281 24.3125 -8.78125 L 24.3125 0 L 19.703125 0 L 19.703125 -7.546875 C 19.703125 -8.253906 19.503906 -8.84375 19.109375 -9.3125 C 18.722656 -9.789062 18.144531 -10.03125 17.375 -10.03125 C 16.695312 -10.03125 16.175781 -9.828125 15.8125 -9.421875 C 15.457031 -9.015625 15.265625 -8.523438 15.234375 -7.953125 L 15.234375 0 L 10.640625 0 L 10.640625 -7.546875 C 10.640625 -8.253906 10.441406 -8.84375 10.046875 -9.3125 C 9.660156 -9.789062 9.078125 -10.03125 8.296875 -10.03125 C 7.585938 -10.03125 7.050781 -9.804688 6.6875 -9.359375 C 6.332031 -8.921875 6.15625 -8.398438 6.15625 -7.796875 L 6.15625 0 Z M 1.5625 0 "/></g></g></g><g fill="#f7961b" fill-opacity="1"><g transform="translate(117.706165, 32.903895)"><g><path d="M 2.8125 -1.578125 C 1.332031 -2.898438 0.59375 -4.59375 0.59375 -6.65625 C 0.59375 -8.71875 1.363281 -10.410156 2.90625 -11.734375 C 4.445312 -13.066406 6.351562 -13.734375 8.625 -13.734375 C 10.863281 -13.734375 12.75 -13.0625 14.28125 -11.71875 C 15.820312 -10.382812 16.59375 -8.695312 16.59375 -6.65625 C 16.59375 -4.613281 15.84375 -2.925781 14.34375 -1.59375 C 12.84375 -0.269531 10.9375 0.390625 8.625 0.390625 C 6.238281 0.390625 4.300781 -0.265625 2.8125 -1.578125 Z M 6.375 -8.90625 C 5.78125 -8.320312 5.484375 -7.570312 5.484375 -6.65625 C 5.484375 -5.738281 5.769531 -4.988281 6.34375 -4.40625 C 6.914062 -3.820312 7.671875 -3.53125 8.609375 -3.53125 C 9.503906 -3.53125 10.242188 -3.820312 10.828125 -4.40625 C 11.410156 -5 11.703125 -5.75 11.703125 -6.65625 C 11.703125 -7.570312 11.398438 -8.320312 10.796875 -8.90625 C 10.203125 -9.5 9.472656 -9.796875 8.609375 -9.796875 C 7.722656 -9.796875 6.976562 -9.5 6.375 -8.90625 Z M 6.375 -8.90625 "/></g></g></g><g fill="#ffffff" fill-opacity="1"><g transform="translate(88.721232, 12.963617)"><g><path d="M 2.546875 -5.875 C 2.859375 -5.875 3.160156 -5.828125 3.453125 -5.734375 C 3.753906 -5.648438 3.976562 -5.5625 4.125 -5.46875 L 4.34375 -5.328125 L 3.8125 -4.28125 C 3.769531 -4.3125 3.707031 -4.347656 3.625 -4.390625 C 3.550781 -4.429688 3.410156 -4.488281 3.203125 -4.5625 C 3.003906 -4.644531 2.816406 -4.6875 2.640625 -4.6875 C 2.421875 -4.6875 2.25 -4.640625 2.125 -4.546875 C 2.007812 -4.453125 1.953125 -4.328125 1.953125 -4.171875 C 1.953125 -4.085938 1.976562 -4.007812 2.03125 -3.9375 C 2.09375 -3.875 2.191406 -3.800781 2.328125 -3.71875 C 2.460938 -3.644531 2.578125 -3.582031 2.671875 -3.53125 C 2.773438 -3.488281 2.9375 -3.421875 3.15625 -3.328125 C 3.53125 -3.171875 3.847656 -2.957031 4.109375 -2.6875 C 4.378906 -2.414062 4.515625 -2.101562 4.515625 -1.75 C 4.515625 -1.425781 4.453125 -1.140625 4.328125 -0.890625 C 4.210938 -0.640625 4.050781 -0.441406 3.84375 -0.296875 C 3.632812 -0.160156 3.398438 -0.0625 3.140625 0 C 2.890625 0.0703125 2.617188 0.109375 2.328125 0.109375 C 2.078125 0.109375 1.828125 0.0820312 1.578125 0.03125 C 1.335938 -0.0195312 1.132812 -0.0820312 0.96875 -0.15625 C 0.8125 -0.238281 0.664062 -0.316406 0.53125 -0.390625 C 0.40625 -0.460938 0.3125 -0.523438 0.25 -0.578125 L 0.15625 -0.65625 L 0.8125 -1.765625 C 0.875 -1.710938 0.953125 -1.648438 1.046875 -1.578125 C 1.148438 -1.515625 1.328125 -1.421875 1.578125 -1.296875 C 1.828125 -1.171875 2.046875 -1.109375 2.234375 -1.109375 C 2.785156 -1.109375 3.0625 -1.300781 3.0625 -1.6875 C 3.0625 -1.757812 3.039062 -1.828125 3 -1.890625 C 2.96875 -1.960938 2.898438 -2.03125 2.796875 -2.09375 C 2.691406 -2.164062 2.601562 -2.222656 2.53125 -2.265625 C 2.457031 -2.304688 2.332031 -2.363281 2.15625 -2.4375 C 1.976562 -2.519531 1.847656 -2.582031 1.765625 -2.625 C 1.410156 -2.800781 1.140625 -3.019531 0.953125 -3.28125 C 0.765625 -3.539062 0.671875 -3.816406 0.671875 -4.109375 C 0.671875 -4.628906 0.859375 -5.050781 1.234375 -5.375 C 1.617188 -5.707031 2.054688 -5.875 2.546875 -5.875 Z M 2.546875 -5.875 "/></g></g></g><g fill="#ffffff" fill-opacity="1"><g transform="translate(93.425264, 12.963617)"><g><path d="M 1.734375 -5.78125 L 1.734375 0 L 0.421875 0 L 0.421875 -5.78125 Z M 1.734375 -5.78125 "/></g></g></g><g fill="#ffffff" fill-opacity="1"><g transform="translate(95.581282, 12.963617)"><g><path d="M 1.734375 -3.578125 L 1.734375 0 L 0.421875 0 L 0.421875 -5.78125 L 1.734375 -5.78125 L 4.03125 -2.1875 L 4.046875 -2.1875 L 4.046875 -5.78125 L 5.359375 -5.78125 L 5.359375 0 L 4.046875 0 L 1.75 -3.578125 Z M 1.734375 -3.578125 "/></g></g></g><g fill="#ffffff" fill-opacity="1"><g transform="translate(101.363319, 12.963617)"><g><path d="M 3.5 -1.1875 C 3.695312 -1.1875 3.890625 -1.21875 4.078125 -1.28125 C 4.265625 -1.34375 4.40625 -1.398438 4.5 -1.453125 L 4.625 -1.546875 L 5.1875 -0.421875 C 5.164062 -0.410156 5.140625 -0.394531 5.109375 -0.375 C 5.078125 -0.351562 5 -0.304688 4.875 -0.234375 C 4.757812 -0.171875 4.632812 -0.113281 4.5 -0.0625 C 4.363281 -0.0195312 4.1875 0.015625 3.96875 0.046875 C 3.75 0.0859375 3.523438 0.109375 3.296875 0.109375 C 2.753906 0.109375 2.242188 -0.0195312 1.765625 -0.28125 C 1.285156 -0.550781 0.894531 -0.914062 0.59375 -1.375 C 0.300781 -1.84375 0.15625 -2.34375 0.15625 -2.875 C 0.15625 -3.28125 0.238281 -3.671875 0.40625 -4.046875 C 0.582031 -4.421875 0.816406 -4.738281 1.109375 -5 C 1.398438 -5.269531 1.734375 -5.484375 2.109375 -5.640625 C 2.492188 -5.796875 2.890625 -5.875 3.296875 -5.875 C 3.660156 -5.875 4 -5.828125 4.3125 -5.734375 C 4.632812 -5.648438 4.859375 -5.566406 4.984375 -5.484375 L 5.1875 -5.34375 L 4.625 -4.234375 C 4.59375 -4.253906 4.539062 -4.285156 4.46875 -4.328125 C 4.40625 -4.367188 4.273438 -4.421875 4.078125 -4.484375 C 3.890625 -4.546875 3.695312 -4.578125 3.5 -4.578125 C 3.175781 -4.578125 2.890625 -4.523438 2.640625 -4.421875 C 2.390625 -4.328125 2.1875 -4.191406 2.03125 -4.015625 C 1.882812 -3.847656 1.773438 -3.664062 1.703125 -3.46875 C 1.628906 -3.28125 1.59375 -3.085938 1.59375 -2.890625 C 1.59375 -2.453125 1.753906 -2.054688 2.078125 -1.703125 C 2.410156 -1.359375 2.882812 -1.1875 3.5 -1.1875 Z M 3.5 -1.1875 "/></g></g></g><g fill="#ffffff" fill-opacity="1"><g transform="translate(106.634351, 12.963617)"><g><path d="M 3.71875 -5.78125 L 3.71875 -4.625 L 1.734375 -4.625 L 1.734375 -3.46875 L 3.640625 -3.46875 L 3.640625 -2.3125 L 1.734375 -2.3125 L 1.734375 -1.15625 L 3.71875 -1.15625 L 3.71875 0 L 0.421875 0 L 0.421875 -5.78125 Z M 3.71875 -5.78125 "/></g></g></g><g fill="#ffffff" fill-opacity="1"><g transform="translate(110.694382, 12.963617)"><g/></g></g><g fill="#ffffff" fill-opacity="1"><g transform="translate(112.605391, 12.963617)"><g><path d="M 2.546875 -4.765625 C 2.359375 -4.765625 2.175781 -4.671875 2 -4.484375 C 1.832031 -4.304688 1.707031 -4.125 1.625 -3.9375 L 1.515625 -3.671875 L 0.40625 -4.203125 C 0.425781 -4.242188 0.453125 -4.300781 0.484375 -4.375 C 0.515625 -4.457031 0.585938 -4.59375 0.703125 -4.78125 C 0.828125 -4.976562 0.960938 -5.148438 1.109375 -5.296875 C 1.265625 -5.441406 1.46875 -5.570312 1.71875 -5.6875 C 1.96875 -5.8125 2.242188 -5.875 2.546875 -5.875 C 2.921875 -5.875 3.25 -5.828125 3.53125 -5.734375 C 3.8125 -5.640625 4.03125 -5.519531 4.1875 -5.375 C 4.34375 -5.238281 4.46875 -5.070312 4.5625 -4.875 C 4.65625 -4.675781 4.710938 -4.5 4.734375 -4.34375 C 4.765625 -4.1875 4.78125 -4.019531 4.78125 -3.84375 C 4.78125 -3.59375 4.707031 -3.328125 4.5625 -3.046875 C 4.425781 -2.773438 4.257812 -2.53125 4.0625 -2.3125 C 3.863281 -2.09375 3.660156 -1.894531 3.453125 -1.71875 C 3.253906 -1.539062 3.085938 -1.398438 2.953125 -1.296875 L 2.75 -1.15625 L 4.890625 -1.15625 L 4.890625 0 L 0.390625 0 L 0.390625 -0.328125 C 0.460938 -0.390625 0.566406 -0.476562 0.703125 -0.59375 C 0.835938 -0.707031 1.078125 -0.925781 1.421875 -1.25 C 1.765625 -1.570312 2.066406 -1.875 2.328125 -2.15625 C 2.585938 -2.4375 2.820312 -2.738281 3.03125 -3.0625 C 3.25 -3.382812 3.359375 -3.644531 3.359375 -3.84375 C 3.359375 -3.925781 3.347656 -4.003906 3.328125 -4.078125 C 3.316406 -4.160156 3.285156 -4.257812 3.234375 -4.375 C 3.191406 -4.488281 3.109375 -4.582031 2.984375 -4.65625 C 2.867188 -4.726562 2.722656 -4.765625 2.546875 -4.765625 Z M 2.546875 -4.765625 "/></g></g></g><g fill="#ffffff" fill-opacity="1"><g transform="translate(117.876424, 12.963617)"><g><path d="M 0.203125 -2.890625 C 0.203125 -3.835938 0.425781 -4.570312 0.875 -5.09375 C 1.320312 -5.613281 1.878906 -5.875 2.546875 -5.875 C 3.210938 -5.875 3.769531 -5.613281 4.21875 -5.09375 C 4.664062 -4.570312 4.890625 -3.835938 4.890625 -2.890625 C 4.890625 -2.367188 4.828125 -1.910156 4.703125 -1.515625 C 4.578125 -1.128906 4.398438 -0.816406 4.171875 -0.578125 C 3.953125 -0.347656 3.707031 -0.175781 3.4375 -0.0625 C 3.164062 0.0507812 2.867188 0.109375 2.546875 0.109375 C 2.222656 0.109375 1.925781 0.0507812 1.65625 -0.0625 C 1.382812 -0.175781 1.132812 -0.347656 0.90625 -0.578125 C 0.6875 -0.816406 0.515625 -1.128906 0.390625 -1.515625 C 0.265625 -1.910156 0.203125 -2.367188 0.203125 -2.890625 Z M 1.53125 -2.890625 C 1.53125 -2.273438 1.617188 -1.8125 1.796875 -1.5 C 1.972656 -1.195312 2.222656 -1.046875 2.546875 -1.046875 C 2.867188 -1.046875 3.117188 -1.195312 3.296875 -1.5 C 3.472656 -1.8125 3.5625 -2.273438 3.5625 -2.890625 C 3.5625 -3.472656 3.472656 -3.921875 3.296875 -4.234375 C 3.117188 -4.554688 2.867188 -4.71875 2.546875 -4.71875 C 2.234375 -4.71875 1.984375 -4.554688 1.796875 -4.234375 C 1.617188 -3.910156 1.53125 -3.460938 1.53125 -2.890625 Z M 1.53125 -2.890625 "/></g></g></g><g fill="#ffffff" fill-opacity="1"><g transform="translate(122.965459, 12.963617)"><g><path d="M 2.546875 -4.765625 C 2.359375 -4.765625 2.175781 -4.671875 2 -4.484375 C 1.832031 -4.304688 1.707031 -4.125 1.625 -3.9375 L 1.515625 -3.671875 L 0.40625 -4.203125 C 0.425781 -4.242188 0.453125 -4.300781 0.484375 -4.375 C 0.515625 -4.457031 0.585938 -4.59375 0.703125 -4.78125 C 0.828125 -4.976562 0.960938 -5.148438 1.109375 -5.296875 C 1.265625 -5.441406 1.46875 -5.570312 1.71875 -5.6875 C 1.96875 -5.8125 2.242188 -5.875 2.546875 -5.875 C 2.921875 -5.875 3.25 -5.828125 3.53125 -5.734375 C 3.8125 -5.640625 4.03125 -5.519531 4.1875 -5.375 C 4.34375 -5.238281 4.46875 -5.070312 4.5625 -4.875 C 4.65625 -4.675781 4.710938 -4.5 4.734375 -4.34375 C 4.765625 -4.1875 4.78125 -4.019531 4.78125 -3.84375 C 4.78125 -3.59375 4.707031 -3.328125 4.5625 -3.046875 C 4.425781 -2.773438 4.257812 -2.53125 4.0625 -2.3125 C 3.863281 -2.09375 3.660156 -1.894531 3.453125 -1.71875 C 3.253906 -1.539062 3.085938 -1.398438 2.953125 -1.296875 L 2.75 -1.15625 L 4.890625 -1.15625 L 4.890625 0 L 0.390625 0 L 0.390625 -0.328125 C 0.460938 -0.390625 0.566406 -0.476562 0.703125 -0.59375 C 0.835938 -0.707031 1.078125 -0.925781 1.421875 -1.25 C 1.765625 -1.570312 2.066406 -1.875 2.328125 -2.15625 C 2.585938 -2.4375 2.820312 -2.738281 3.03125 -3.0625 C 3.25 -3.382812 3.359375 -3.644531 3.359375 -3.84375 C 3.359375 -3.925781 3.347656 -4.003906 3.328125 -4.078125 C 3.316406 -4.160156 3.285156 -4.257812 3.234375 -4.375 C 3.191406 -4.488281 3.109375 -4.582031 2.984375 -4.65625 C 2.867188 -4.726562 2.722656 -4.765625 2.546875 -4.765625 Z M 2.546875 -4.765625 "/></g></g></g><g fill="#ffffff" fill-opacity="1"><g transform="translate(128.236491, 12.963617)"><g><path d="M 1.4375 -4.109375 L 0.40625 -4.609375 C 0.40625 -4.640625 0.414062 -4.6875 0.4375 -4.75 C 0.457031 -4.8125 0.515625 -4.910156 0.609375 -5.046875 C 0.703125 -5.191406 0.8125 -5.320312 0.9375 -5.4375 C 1.0625 -5.550781 1.242188 -5.648438 1.484375 -5.734375 C 1.734375 -5.828125 2.007812 -5.875 2.3125 -5.875 C 2.863281 -5.875 3.316406 -5.71875 3.671875 -5.40625 C 4.023438 -5.09375 4.203125 -4.691406 4.203125 -4.203125 C 4.203125 -3.742188 4.035156 -3.378906 3.703125 -3.109375 C 4.191406 -2.816406 4.4375 -2.378906 4.4375 -1.796875 C 4.4375 -1.242188 4.234375 -0.785156 3.828125 -0.421875 C 3.421875 -0.0664062 2.90625 0.109375 2.28125 0.109375 C 1.957031 0.109375 1.660156 0.0625 1.390625 -0.03125 C 1.117188 -0.132812 0.90625 -0.253906 0.75 -0.390625 C 0.601562 -0.535156 0.476562 -0.675781 0.375 -0.8125 C 0.269531 -0.945312 0.203125 -1.066406 0.171875 -1.171875 L 0.125 -1.3125 L 1.34375 -1.90625 C 1.34375 -1.882812 1.34375 -1.851562 1.34375 -1.8125 C 1.351562 -1.769531 1.378906 -1.695312 1.421875 -1.59375 C 1.460938 -1.5 1.515625 -1.410156 1.578125 -1.328125 C 1.640625 -1.253906 1.726562 -1.1875 1.84375 -1.125 C 1.96875 -1.0625 2.113281 -1.03125 2.28125 -1.03125 C 2.53125 -1.03125 2.726562 -1.097656 2.875 -1.234375 C 3.03125 -1.367188 3.109375 -1.554688 3.109375 -1.796875 C 3.109375 -2.035156 3.023438 -2.234375 2.859375 -2.390625 C 2.703125 -2.554688 2.507812 -2.640625 2.28125 -2.640625 L 2.03125 -2.59375 L 2.03125 -3.453125 L 2.3125 -3.453125 C 2.5 -3.453125 2.660156 -3.519531 2.796875 -3.65625 C 2.941406 -3.800781 3.015625 -3.976562 3.015625 -4.1875 C 3.015625 -4.363281 2.941406 -4.515625 2.796875 -4.640625 C 2.648438 -4.765625 2.484375 -4.828125 2.296875 -4.828125 C 2.160156 -4.828125 2.035156 -4.800781 1.921875 -4.75 C 1.816406 -4.695312 1.734375 -4.632812 1.671875 -4.5625 C 1.617188 -4.5 1.570312 -4.429688 1.53125 -4.359375 C 1.488281 -4.285156 1.460938 -4.226562 1.453125 -4.1875 Z M 1.4375 -4.109375 "/></g></g></g></svg>