<svg xmlns="http://www.w3.org/2000/svg" xmlns:xlink="http://www.w3.org/1999/xlink" width="100" zoomAndPan="magnify" viewBox="0 0 75 74.999997" height="100" preserveAspectRatio="xMidYMid meet" version="1.0"><defs><clipPath id="aa068c65a5"><path d="M 37.5 0 C 16.789062 0 0 16.789062 0 37.5 C 0 58.210938 16.789062 75 37.5 75 C 58.210938 75 75 58.210938 75 37.5 C 75 16.789062 58.210938 0 37.5 0 Z M 37.5 0 " clip-rule="nonzero"/></clipPath><clipPath id="3afb0f2683"><path d="M 7.613281 7.613281 L 67.386719 7.613281 L 67.386719 67.386719 L 7.613281 67.386719 Z M 7.613281 7.613281 " clip-rule="nonzero"/></clipPath><clipPath id="b2529483af"><path d="M 37.5 7.613281 C 20.992188 7.613281 7.613281 20.992188 7.613281 37.5 C 7.613281 54.007812 20.992188 67.386719 37.5 67.386719 C 54.007812 67.386719 67.386719 54.007812 67.386719 37.5 C 67.386719 20.992188 54.007812 7.613281 37.5 7.613281 Z M 37.5 7.613281 " clip-rule="nonzero"/></clipPath></defs><g clip-path="url(#aa068c65a5)"><rect x="-7.5" width="90" fill="#5ae8b5" y="-7.5" height="89.999996" fill-opacity="1"/></g><g clip-path="url(#3afb0f2683)"><g clip-path="url(#b2529483af)"><path fill="#ffffff" d="M 7.613281 7.613281 L 67.386719 7.613281 L 67.386719 67.386719 L 7.613281 67.386719 Z M 7.613281 7.613281 " fill-opacity="1" fill-rule="nonzero"/></g></g></svg>