<svg xmlns="http://www.w3.org/2000/svg" xmlns:xlink="http://www.w3.org/1999/xlink" width="70" zoomAndPan="magnify" viewBox="0 0 52.5 52.499999" height="70" preserveAspectRatio="xMidYMid meet" version="1.0"><defs><clipPath id="38c5404b6b"><path d="M 3.863281 14.246094 L 51.113281 14.246094 L 51.113281 47.222656 L 3.863281 47.222656 Z M 3.863281 14.246094 " clip-rule="nonzero"/></clipPath><clipPath id="5c1b700a8f"><path d="M 1.28125 5.261719 L 48.53125 5.261719 L 48.53125 38.238281 L 1.28125 38.238281 Z M 1.28125 5.261719 " clip-rule="nonzero"/></clipPath></defs><g clip-path="url(#38c5404b6b)"><path fill="#6f7ac2" d="M 3.863281 44.230469 L 3.863281 17.238281 C 3.863281 15.585938 5.199219 14.246094 6.847656 14.246094 L 48.128906 14.246094 C 49.777344 14.246094 51.113281 15.585938 51.113281 17.238281 L 51.113281 44.230469 C 51.113281 45.882812 49.777344 47.222656 48.128906 47.222656 L 6.847656 47.222656 C 5.199219 47.222656 3.863281 45.882812 3.863281 44.230469 " fill-opacity="1" fill-rule="nonzero"/></g><g clip-path="url(#5c1b700a8f)"><path fill="#2a388f" d="M 1.28125 35.246094 L 1.28125 8.253906 C 1.28125 6.601562 2.617188 5.261719 4.265625 5.261719 L 45.546875 5.261719 C 47.195312 5.261719 48.53125 6.601562 48.53125 8.253906 L 48.53125 35.246094 C 48.53125 36.898438 47.195312 38.238281 45.546875 38.238281 L 4.265625 38.238281 C 2.617188 38.238281 1.28125 36.898438 1.28125 35.246094 " fill-opacity="1" fill-rule="nonzero"/></g></svg>