<svg xmlns="http://www.w3.org/2000/svg" xmlns:xlink="http://www.w3.org/1999/xlink" width="70" zoomAndPan="magnify" viewBox="0 0 52.5 52.499999" height="70" preserveAspectRatio="xMidYMid meet" version="1.0"><defs><clipPath id="13aafeeaf1"><path d="M 4 1.441406 L 48.667969 1.441406 L 48.667969 44.191406 L 4 44.191406 Z M 4 1.441406 " clip-rule="nonzero"/></clipPath><clipPath id="67b8bb81dc"><path d="M 12.964844 43.324219 L 21.171875 43.324219 L 21.171875 50.820312 L 12.964844 50.820312 Z M 12.964844 43.324219 " clip-rule="nonzero"/></clipPath><clipPath id="30f3334716"><path d="M 22.0625 43.324219 L 30.269531 43.324219 L 30.269531 50.820312 L 22.0625 50.820312 Z M 22.0625 43.324219 " clip-rule="nonzero"/></clipPath><clipPath id="e830b148e4"><path d="M 31.160156 43.324219 L 39.367188 43.324219 L 39.367188 50.820312 L 31.160156 50.820312 Z M 31.160156 43.324219 " clip-rule="nonzero"/></clipPath><clipPath id="fcdc610023"><path d="M 40.347656 43.324219 L 48.464844 43.324219 L 48.464844 50.820312 L 40.347656 50.820312 Z M 40.347656 43.324219 " clip-rule="nonzero"/></clipPath><clipPath id="0c9daf8900"><path d="M 3.867188 43.324219 L 11.984375 43.324219 L 11.984375 50.820312 L 3.867188 50.820312 Z M 3.867188 43.324219 " clip-rule="nonzero"/></clipPath></defs><g clip-path="url(#13aafeeaf1)"><path fill="#f7961b" d="M 23.828125 41.179688 L 11.914062 41.179688 L 11.914062 24.632812 C 12.375 24.785156 12.839844 24.890625 13.308594 24.960938 L 13.308594 39.421875 L 22.085938 39.421875 Z M 33.511719 41.179688 L 43.371094 41.179688 L 43.371094 31.210938 L 41.980469 32.617188 L 41.980469 39.421875 L 35.25 39.421875 Z M 43.371094 21.464844 L 43.371094 1.429688 L 11.914062 1.429688 L 11.914062 8.042969 C 12.371094 7.894531 12.835938 7.785156 13.308594 7.714844 L 13.308594 3.191406 L 41.980469 3.191406 L 41.980469 22.871094 Z M 35.851562 29.070312 L 17.769531 29.070312 C 17.152344 29.070312 16.671875 28.582031 16.671875 27.960938 C 16.671875 27.335938 17.152344 26.851562 17.769531 26.851562 L 37.519531 26.851562 C 37.675781 26.851562 37.824219 26.882812 37.957031 26.9375 Z M 20.597656 33.503906 L 17.769531 33.503906 C 17.152344 33.503906 16.671875 33.015625 16.671875 32.394531 C 16.671875 31.773438 17.152344 31.285156 17.769531 31.285156 L 33.65625 31.285156 L 31.460938 33.503906 L 25.875 33.503906 L 24.503906 32.117188 C 23.804688 31.410156 22.664062 31.410156 21.96875 32.117188 Z M 21.621094 11.324219 L 37.519531 11.324219 C 38.132812 11.324219 38.617188 10.835938 38.617188 10.214844 C 38.617188 9.59375 38.132812 9.105469 37.519531 9.105469 L 19.382812 9.105469 C 20.28125 9.714844 21.03125 10.46875 21.621094 11.324219 Z M 23.171875 15.757812 L 37.519531 15.757812 C 38.132812 15.757812 38.617188 15.273438 38.617188 14.652344 C 38.617188 14.027344 38.132812 13.542969 37.519531 13.542969 L 22.734375 13.542969 C 22.972656 14.257812 23.121094 15.003906 23.171875 15.757812 Z M 22.300781 20.195312 L 37.519531 20.195312 C 38.132812 20.195312 38.617188 19.707031 38.617188 19.085938 C 38.617188 18.464844 38.132812 17.976562 37.519531 17.976562 L 23.039062 17.976562 C 22.894531 18.734375 22.652344 19.480469 22.300781 20.195312 Z M 20.75 22.414062 L 37.519531 22.414062 C 38.132812 22.414062 38.617188 22.902344 38.617188 23.523438 C 38.617188 24.144531 38.132812 24.632812 37.519531 24.632812 L 17.769531 24.632812 C 17.636719 24.632812 17.511719 24.609375 17.394531 24.570312 C 18.644531 24.128906 19.800781 23.402344 20.75 22.414062 Z M 8.066406 12.511719 C 10.15625 8.851562 14.804688 7.59375 18.425781 9.707031 C 22.046875 11.824219 23.292969 16.519531 21.203125 20.179688 C 19.402344 23.332031 15.703125 24.703125 12.398438 23.671875 L 7.234375 32.710938 C 6.769531 33.523438 5.738281 33.804688 4.929688 33.335938 C 4.125 32.863281 3.847656 31.816406 4.3125 31.003906 L 9.476562 21.964844 C 6.9375 19.589844 6.261719 15.667969 8.066406 12.511719 Z M 12.148438 20.976562 C 14.523438 22.363281 17.570312 21.539062 18.941406 19.136719 C 20.316406 16.738281 19.5 13.65625 17.121094 12.269531 C 14.746094 10.882812 11.699219 11.707031 10.328125 14.109375 C 8.953125 16.511719 9.773438 19.589844 12.148438 20.976562 Z M 48.238281 23.730469 C 48.476562 23.972656 48.476562 24.375 48.238281 24.617188 L 29.109375 43.957031 C 28.871094 44.199219 28.472656 44.199219 28.230469 43.957031 L 20.511719 36.152344 C 20.269531 35.910156 20.269531 35.507812 20.511719 35.265625 L 22.796875 32.953125 C 23.035156 32.710938 23.433594 32.710938 23.675781 32.953125 L 27.402344 36.71875 C 28.097656 37.425781 29.238281 37.425781 29.9375 36.71875 L 45.070312 21.417969 C 45.3125 21.175781 45.707031 21.175781 45.949219 21.417969 Z M 48.238281 23.730469 " fill-opacity="1" fill-rule="evenodd"/></g><g clip-path="url(#67b8bb81dc)"><path fill="#2a388f" d="M 18 46.1875 L 17.042969 43.324219 L 16.085938 46.1875 L 12.992188 46.1875 L 15.496094 47.957031 L 14.539062 50.820312 L 17.042969 49.050781 L 19.546875 50.820312 L 18.589844 47.957031 L 21.09375 46.1875 L 18 46.1875 " fill-opacity="1" fill-rule="nonzero"/></g><g clip-path="url(#30f3334716)"><path fill="#2a388f" d="M 27.121094 46.1875 L 26.167969 43.324219 L 25.210938 46.1875 L 22.117188 46.1875 L 24.621094 47.957031 L 23.664062 50.820312 L 26.167969 49.050781 L 28.671875 50.820312 L 27.714844 47.957031 L 30.21875 46.1875 L 27.121094 46.1875 " fill-opacity="1" fill-rule="nonzero"/></g><g clip-path="url(#e830b148e4)"><path fill="#2a388f" d="M 36.246094 46.1875 L 35.289062 43.324219 L 34.332031 46.1875 L 31.238281 46.1875 L 33.742188 47.957031 L 32.785156 50.820312 L 35.289062 49.050781 L 37.792969 50.820312 L 36.835938 47.957031 L 39.339844 46.1875 L 36.246094 46.1875 " fill-opacity="1" fill-rule="nonzero"/></g><g clip-path="url(#fcdc610023)"><path fill="#2a388f" d="M 48.464844 46.1875 L 45.371094 46.1875 L 44.414062 43.324219 L 43.457031 46.1875 L 40.363281 46.1875 L 42.867188 47.957031 L 41.910156 50.820312 L 44.414062 49.050781 L 46.917969 50.820312 L 45.960938 47.957031 L 48.464844 46.1875 " fill-opacity="1" fill-rule="nonzero"/></g><g clip-path="url(#0c9daf8900)"><path fill="#2a388f" d="M 8.875 46.1875 L 7.917969 43.324219 L 6.960938 46.1875 L 3.867188 46.1875 L 6.371094 47.957031 L 5.414062 50.820312 L 7.917969 49.050781 L 10.421875 50.820312 L 9.46875 47.957031 L 11.96875 46.1875 L 8.875 46.1875 " fill-opacity="1" fill-rule="nonzero"/></g></svg>