<svg xmlns="http://www.w3.org/2000/svg" xmlns:xlink="http://www.w3.org/1999/xlink" width="110" zoomAndPan="magnify" viewBox="0 0 82.5 52.499999" height="70" preserveAspectRatio="xMidYMid meet" version="1.0"><defs><clipPath id="55202b9611"><path d="M 60 16 L 66.765625 16 L 66.765625 23 L 60 23 Z M 60 16 " clip-rule="nonzero"/></clipPath><clipPath id="cec288ea99"><path d="M 15.941406 26 L 24 26 L 24 41 L 15.941406 41 Z M 15.941406 26 " clip-rule="nonzero"/></clipPath><clipPath id="410ec14430"><path d="M 34 45 L 49 45 L 49 52.003906 L 34 52.003906 Z M 34 45 " clip-rule="nonzero"/></clipPath></defs><path fill="#ffca4f" d="M 49.09375 25.363281 C 49.09375 24.910156 49.054688 24.460938 48.972656 24.015625 C 48.890625 23.570312 48.769531 23.136719 48.609375 22.710938 C 48.449219 22.285156 48.253906 21.878906 48.019531 21.492188 C 47.789062 21.101562 47.519531 20.738281 47.222656 20.398438 C 46.921875 20.054688 46.59375 19.746094 46.238281 19.460938 C 45.882812 19.179688 45.503906 18.933594 45.101562 18.71875 C 44.703125 18.503906 44.285156 18.328125 43.851562 18.1875 C 43.421875 18.046875 42.976562 17.949219 42.527344 17.886719 C 42.078125 17.828125 41.625 17.808594 41.167969 17.828125 C 40.714844 17.851562 40.265625 17.910156 39.824219 18.011719 C 39.378906 18.113281 38.949219 18.253906 38.53125 18.433594 C 38.113281 18.613281 37.714844 18.828125 37.335938 19.078125 C 36.957031 19.328125 36.601562 19.609375 36.273438 19.921875 C 35.945312 20.238281 35.648438 20.578125 35.382812 20.945312 C 35.117188 21.3125 34.886719 21.699219 34.6875 22.109375 C 34.492188 22.515625 34.335938 22.941406 34.214844 23.378906 C 34.09375 23.816406 34.015625 24.257812 33.976562 24.710938 C 33.9375 25.160156 33.9375 25.613281 33.980469 26.0625 C 34.023438 26.515625 34.105469 26.957031 34.226562 27.394531 C 34.351562 27.832031 34.511719 28.253906 34.710938 28.660156 C 34.910156 29.066406 35.144531 29.453125 35.410156 29.820312 C 35.679688 30.183594 35.980469 30.523438 36.308594 30.835938 C 36.640625 31.148438 36.996094 31.425781 37.375 31.675781 C 37.757812 31.921875 38.15625 32.132812 38.574219 32.3125 L 38.574219 35.839844 C 38.574219 36.226562 38.652344 36.601562 38.800781 36.960938 C 38.949219 37.320312 39.164062 37.636719 39.4375 37.914062 C 39.714844 38.1875 40.03125 38.398438 40.394531 38.546875 C 40.753906 38.699219 41.128906 38.773438 41.519531 38.773438 C 41.910156 38.773438 42.289062 38.699219 42.648438 38.546875 C 43.007812 38.398438 43.328125 38.1875 43.605469 37.914062 C 43.878906 37.636719 44.09375 37.320312 44.242188 36.960938 C 44.390625 36.601562 44.464844 36.226562 44.464844 35.839844 L 44.464844 32.3125 C 45.152344 32.023438 45.78125 31.640625 46.355469 31.167969 C 46.929688 30.695312 47.421875 30.148438 47.832031 29.53125 C 48.242188 28.914062 48.554688 28.25 48.773438 27.539062 C 48.988281 26.832031 49.09375 26.105469 49.09375 25.363281 Z M 49.09375 25.363281 " fill-opacity="1" fill-rule="nonzero"/><path fill="#b38d37" d="M 42.363281 34.582031 L 40.679688 34.582031 L 40.679688 29.804688 L 37.457031 24.988281 C 37.359375 24.84375 37.308594 24.6875 37.308594 24.511719 C 37.308594 24.339844 37.359375 24.183594 37.457031 24.039062 C 37.554688 23.890625 37.6875 23.785156 37.851562 23.722656 C 38.015625 23.65625 38.183594 23.644531 38.355469 23.6875 L 41.519531 24.527344 L 44.683594 23.6875 C 45.046875 23.597656 45.339844 23.699219 45.5625 23.996094 C 45.785156 24.292969 45.804688 24.597656 45.617188 24.917969 L 43.9375 27.851562 L 42.472656 27.015625 L 43.203125 25.816406 L 41.722656 26.203125 C 41.589844 26.234375 41.453125 26.234375 41.320312 26.203125 L 40.066406 25.890625 L 42.21875 29.117188 C 42.308594 29.25 42.355469 29.394531 42.363281 29.554688 Z M 42.363281 34.582031 " fill-opacity="1" fill-rule="nonzero"/><path fill="#596c80" d="M 44.464844 33.742188 L 44.464844 35.839844 C 44.464844 36.226562 44.390625 36.601562 44.242188 36.960938 C 44.09375 37.320312 43.878906 37.636719 43.605469 37.914062 C 43.328125 38.1875 43.007812 38.398438 42.648438 38.546875 C 42.289062 38.699219 41.910156 38.773438 41.519531 38.773438 C 41.128906 38.773438 40.753906 38.699219 40.394531 38.546875 C 40.03125 38.398438 39.714844 38.1875 39.4375 37.914062 C 39.164062 37.636719 38.949219 37.320312 38.800781 36.960938 C 38.652344 36.601562 38.574219 36.226562 38.574219 35.839844 L 38.574219 33.742188 Z M 44.464844 33.742188 " fill-opacity="1" fill-rule="nonzero"/><path fill="#f6ad35" d="M 23.007812 19.421875 C 23.007812 19.867188 22.921875 20.292969 22.753906 20.707031 C 22.582031 21.117188 22.339844 21.476562 22.023438 21.792969 C 21.707031 22.105469 21.34375 22.347656 20.929688 22.519531 C 20.519531 22.6875 20.089844 22.773438 19.644531 22.773438 C 19.195312 22.773438 18.765625 22.6875 18.355469 22.519531 C 17.941406 22.347656 17.578125 22.105469 17.261719 21.792969 C 16.945312 21.476562 16.703125 21.117188 16.53125 20.707031 C 16.363281 20.292969 16.277344 19.867188 16.277344 19.421875 C 16.277344 18.976562 16.363281 18.550781 16.53125 18.140625 C 16.703125 17.730469 16.945312 17.367188 17.261719 17.050781 C 17.578125 16.738281 17.941406 16.496094 18.355469 16.324219 C 18.765625 16.15625 19.195312 16.070312 19.644531 16.070312 C 20.089844 16.070312 20.519531 16.15625 20.929688 16.324219 C 21.34375 16.496094 21.707031 16.738281 22.023438 17.050781 C 22.339844 17.367188 22.582031 17.730469 22.753906 18.140625 C 22.921875 18.550781 23.007812 18.976562 23.007812 19.421875 Z M 23.007812 19.421875 " fill-opacity="1" fill-rule="nonzero"/><g clip-path="url(#55202b9611)"><path fill="#f6ad35" d="M 66.765625 19.496094 C 66.765625 19.941406 66.679688 20.371094 66.507812 20.78125 C 66.339844 21.191406 66.09375 21.554688 65.78125 21.867188 C 65.464844 22.183594 65.101562 22.425781 64.6875 22.59375 C 64.273438 22.765625 63.847656 22.851562 63.398438 22.851562 C 62.953125 22.851562 62.523438 22.765625 62.109375 22.59375 C 61.699219 22.425781 61.335938 22.183594 61.019531 21.867188 C 60.703125 21.554688 60.460938 21.191406 60.289062 20.78125 C 60.117188 20.371094 60.035156 19.941406 60.035156 19.496094 C 60.035156 19.054688 60.117188 18.625 60.289062 18.214844 C 60.460938 17.804688 60.703125 17.441406 61.019531 17.128906 C 61.335938 16.8125 61.699219 16.570312 62.109375 16.402344 C 62.523438 16.230469 62.953125 16.144531 63.398438 16.144531 C 63.847656 16.144531 64.273438 16.230469 64.6875 16.402344 C 65.101562 16.570312 65.464844 16.8125 65.78125 17.128906 C 66.09375 17.441406 66.339844 17.804688 66.507812 18.214844 C 66.679688 18.625 66.765625 19.054688 66.765625 19.496094 Z M 66.765625 19.496094 " fill-opacity="1" fill-rule="nonzero"/></g><path fill="#f6ad35" d="M 44.886719 3.574219 C 44.886719 4.019531 44.800781 4.449219 44.628906 4.859375 C 44.460938 5.269531 44.214844 5.632812 43.902344 5.945312 C 43.585938 6.261719 43.222656 6.503906 42.808594 6.671875 C 42.398438 6.84375 41.96875 6.929688 41.519531 6.929688 C 41.074219 6.929688 40.644531 6.84375 40.234375 6.671875 C 39.820312 6.503906 39.457031 6.261719 39.140625 5.945312 C 38.824219 5.632812 38.582031 5.269531 38.410156 4.859375 C 38.242188 4.449219 38.15625 4.019531 38.15625 3.574219 C 38.15625 3.132812 38.242188 2.703125 38.410156 2.292969 C 38.582031 1.882812 38.824219 1.519531 39.140625 1.207031 C 39.457031 0.890625 39.820312 0.648438 40.234375 0.480469 C 40.644531 0.308594 41.074219 0.222656 41.519531 0.222656 C 41.96875 0.222656 42.398438 0.308594 42.808594 0.480469 C 43.222656 0.648438 43.585938 0.890625 43.902344 1.207031 C 44.214844 1.519531 44.460938 1.882812 44.628906 2.292969 C 44.800781 2.703125 44.886719 3.132812 44.886719 3.574219 Z M 44.886719 3.574219 " fill-opacity="1" fill-rule="nonzero"/><path fill="#f6ad35" d="M 31.421875 45.476562 C 31.421875 45.921875 31.339844 46.347656 31.167969 46.757812 C 30.996094 47.167969 30.753906 47.53125 30.4375 47.847656 C 30.121094 48.160156 29.757812 48.402344 29.34375 48.574219 C 28.933594 48.742188 28.503906 48.828125 28.058594 48.828125 C 27.609375 48.828125 27.183594 48.742188 26.769531 48.574219 C 26.355469 48.402344 25.992188 48.160156 25.675781 47.847656 C 25.363281 47.53125 25.117188 47.167969 24.949219 46.757812 C 24.777344 46.347656 24.691406 45.921875 24.691406 45.476562 C 24.691406 45.03125 24.777344 44.605469 24.949219 44.191406 C 25.117188 43.78125 25.363281 43.417969 25.675781 43.105469 C 25.992188 42.792969 26.355469 42.550781 26.769531 42.378906 C 27.183594 42.207031 27.609375 42.125 28.058594 42.125 C 28.503906 42.125 28.933594 42.207031 29.34375 42.378906 C 29.757812 42.550781 30.121094 42.792969 30.4375 43.105469 C 30.753906 43.417969 30.996094 43.78125 31.167969 44.191406 C 31.339844 44.605469 31.421875 45.03125 31.421875 45.476562 Z M 31.421875 45.476562 " fill-opacity="1" fill-rule="nonzero"/><path fill="#f6ad35" d="M 58.351562 45.476562 C 58.351562 45.921875 58.265625 46.347656 58.09375 46.757812 C 57.921875 47.167969 57.679688 47.53125 57.363281 47.847656 C 57.050781 48.160156 56.683594 48.402344 56.273438 48.574219 C 55.859375 48.742188 55.429688 48.828125 54.984375 48.828125 C 54.539062 48.828125 54.109375 48.742188 53.695312 48.574219 C 53.285156 48.402344 52.921875 48.160156 52.605469 47.847656 C 52.289062 47.53125 52.046875 47.167969 51.875 46.757812 C 51.703125 46.347656 51.617188 45.921875 51.617188 45.476562 C 51.617188 45.03125 51.703125 44.605469 51.875 44.191406 C 52.046875 43.78125 52.289062 43.417969 52.605469 43.105469 C 52.921875 42.792969 53.285156 42.550781 53.695312 42.378906 C 54.109375 42.207031 54.539062 42.125 54.984375 42.125 C 55.429688 42.125 55.859375 42.207031 56.273438 42.378906 C 56.683594 42.550781 57.050781 42.792969 57.363281 43.105469 C 57.679688 43.417969 57.921875 43.78125 58.09375 44.191406 C 58.265625 44.605469 58.351562 45.03125 58.351562 45.476562 Z M 58.351562 45.476562 " fill-opacity="1" fill-rule="nonzero"/><path fill="#ffca4f" d="M 51.617188 24.527344 L 54.144531 24.527344 L 54.144531 26.203125 L 51.617188 26.203125 Z M 51.617188 24.527344 " fill-opacity="1" fill-rule="nonzero"/><path fill="#ffca4f" d="M 28.898438 24.527344 L 31.421875 24.527344 L 31.421875 26.203125 L 28.898438 26.203125 Z M 28.898438 24.527344 " fill-opacity="1" fill-rule="nonzero"/><path fill="#ffca4f" d="M 48.066406 17.65625 L 49.851562 15.875 L 51.042969 17.0625 L 49.257812 18.839844 Z M 48.066406 17.65625 " fill-opacity="1" fill-rule="nonzero"/><path fill="#ffca4f" d="M 32.003906 33.660156 L 33.789062 31.882812 L 34.980469 33.070312 L 33.195312 34.847656 Z M 32.003906 33.660156 " fill-opacity="1" fill-rule="nonzero"/><path fill="#ffca4f" d="M 48.074219 33.0625 L 49.261719 31.878906 L 51.046875 33.65625 L 49.859375 34.84375 Z M 48.074219 33.0625 " fill-opacity="1" fill-rule="nonzero"/><path fill="#ffca4f" d="M 32 17.066406 L 33.1875 15.882812 L 34.972656 17.660156 L 33.785156 18.84375 Z M 32 17.066406 " fill-opacity="1" fill-rule="nonzero"/><path fill="#ffca4f" d="M 40.679688 12.792969 L 42.363281 12.792969 L 42.363281 15.308594 L 40.679688 15.308594 Z M 40.679688 12.792969 " fill-opacity="1" fill-rule="nonzero"/><path fill="#8e9fb3" d="M 30.261719 5.605469 C 27.078125 7.328125 24.429688 9.660156 22.328125 12.601562 L 23.691406 13.574219 C 25.660156 10.832031 28.132812 8.660156 31.113281 7.0625 L 32.367188 9.207031 L 34.554688 4.0625 L 28.984375 3.410156 Z M 30.261719 5.605469 " fill-opacity="1" fill-rule="nonzero"/><path fill="#8e9fb3" d="M 60.472656 13.304688 L 59.898438 7.765625 L 58.015625 9.484375 C 55.304688 6.820312 52.128906 4.921875 48.496094 3.785156 L 48.007812 5.386719 C 51.351562 6.4375 54.273438 8.183594 56.777344 10.625 L 54.960938 12.300781 Z M 60.472656 13.304688 " fill-opacity="1" fill-rule="nonzero"/><g clip-path="url(#cec288ea99)"><path fill="#8e9fb3" d="M 22.613281 30.390625 L 18.71875 26.34375 L 15.933594 31.230469 L 18.457031 30.917969 C 19.132812 34.292969 20.496094 37.367188 22.546875 40.136719 L 23.902344 39.148438 C 22.019531 36.601562 20.757812 33.777344 20.121094 30.675781 Z M 22.613281 30.390625 " fill-opacity="1" fill-rule="nonzero"/></g><path fill="#8e9fb3" d="M 65.082031 26.203125 L 63.398438 26.203125 C 63.398438 29.601562 62.636719 32.824219 61.109375 35.863281 L 58.980469 34.683594 L 59.738281 40.222656 L 64.863281 37.933594 L 62.601562 36.675781 C 64.257812 33.378906 65.082031 29.886719 65.082031 26.203125 Z M 65.082031 26.203125 " fill-opacity="1" fill-rule="nonzero"/><g clip-path="url(#410ec14430)"><path fill="#8e9fb3" d="M 39.527344 47.878906 L 39.949219 45.507812 L 34.941406 48.023438 L 38.769531 52.105469 L 39.222656 49.589844 C 39.988281 49.664062 40.753906 49.707031 41.519531 49.707031 C 43.902344 49.710938 46.230469 49.363281 48.503906 48.660156 L 48 47.058594 C 45.230469 47.890625 42.40625 48.164062 39.527344 47.878906 Z M 39.527344 47.878906 " fill-opacity="1" fill-rule="nonzero"/></g></svg>