<svg xmlns="http://www.w3.org/2000/svg" xmlns:xlink="http://www.w3.org/1999/xlink" width="110" zoomAndPan="magnify" viewBox="0 0 82.5 52.499999" height="70" preserveAspectRatio="xMidYMid meet" version="1.0"><defs><clipPath id="21a019793a"><path d="M 5 18 L 39.773438 18 L 39.773438 45.976562 L 5 45.976562 Z M 5 18 " clip-rule="nonzero"/></clipPath><clipPath id="e2012d3c7b"><path d="M 5.6875 18.054688 L 39.769531 18.054688 L 39.769531 45.976562 L 5.6875 45.976562 Z M 5.6875 18.054688 " clip-rule="nonzero"/></clipPath><clipPath id="0987218e62"><path d="M 33.515625 25.152344 L 39.769531 25.152344 L 39.769531 25.867188 L 33.515625 25.867188 Z M 33.515625 25.152344 " clip-rule="nonzero"/></clipPath><clipPath id="dc0ecf701c"><path d="M 0.140625 12 L 34 12 L 34 21 L 0.140625 21 Z M 0.140625 12 " clip-rule="nonzero"/></clipPath><clipPath id="a6c231ddfe"><path d="M 0.140625 20 L 34 20 L 34 41 L 0.140625 41 Z M 0.140625 20 " clip-rule="nonzero"/></clipPath><clipPath id="51c73fdc09"><path d="M 5 6.34375 L 14 6.34375 L 14 23 L 5 23 Z M 5 6.34375 " clip-rule="nonzero"/></clipPath><clipPath id="25228a5a56"><path d="M 0.140625 19 L 6 19 L 6 21 L 0.140625 21 Z M 0.140625 19 " clip-rule="nonzero"/></clipPath><clipPath id="c453a30d5d"><path d="M 0.140625 12 L 35 12 L 35 41 L 0.140625 41 Z M 0.140625 12 " clip-rule="nonzero"/></clipPath><clipPath id="67f52d0fe5"><path d="M 48 23 L 81.863281 23 L 81.863281 25 L 48 25 Z M 48 23 " clip-rule="nonzero"/></clipPath><clipPath id="96d2cffafc"><path d="M 47.136719 42.351562 L 81.863281 42.351562 L 81.863281 45.976562 L 47.136719 45.976562 Z M 47.136719 42.351562 " clip-rule="nonzero"/></clipPath><clipPath id="2894665952"><path d="M 48 24 L 81.863281 24 L 81.863281 44 L 48 44 Z M 48 24 " clip-rule="nonzero"/></clipPath><clipPath id="93cc789a94"><path d="M 47.136719 6.34375 L 63 6.34375 L 63 25 L 47.136719 25 Z M 47.136719 6.34375 " clip-rule="nonzero"/></clipPath></defs><g clip-path="url(#21a019793a)"><path fill="#ffffff" d="M 34.03125 18.574219 L 38.324219 18.519531 L 39.253906 19.3125 L 39.3125 45.121094 L 38.617188 45.628906 L 6.765625 45.628906 L 5.953125 44.722656 L 5.894531 40.289062 L 32.058594 40.230469 C 32.058594 40.230469 33.199219 40.191406 33.453125 39.945312 C 33.902344 39.519531 34.03125 37.558594 34.03125 37.558594 L 34.03125 18.574219 " fill-opacity="1" fill-rule="nonzero"/></g><g clip-path="url(#e2012d3c7b)"><path fill="#17407a" d="M 38.238281 45.976562 L 7.226562 45.976562 C 6.378906 45.976562 5.695312 45.296875 5.695312 44.464844 L 5.695312 41.746094 C 5.695312 41.554688 5.851562 41.398438 6.046875 41.398438 C 6.242188 41.398438 6.398438 41.554688 6.398438 41.746094 L 6.398438 44.464844 C 6.398438 44.914062 6.769531 45.28125 7.226562 45.28125 L 38.238281 45.28125 C 38.695312 45.28125 39.066406 44.914062 39.066406 44.464844 L 39.066406 19.574219 C 39.066406 19.125 38.695312 18.757812 38.238281 18.757812 L 35.238281 18.757812 C 35.042969 18.757812 34.886719 18.605469 34.886719 18.410156 C 34.886719 18.21875 35.042969 18.0625 35.238281 18.0625 L 38.238281 18.0625 C 39.085938 18.0625 39.769531 18.742188 39.769531 19.574219 L 39.769531 44.464844 C 39.769531 45.296875 39.085938 45.976562 38.238281 45.976562 " fill-opacity="1" fill-rule="nonzero"/></g><g clip-path="url(#0987218e62)"><path fill="#17407a" d="M 39.417969 25.851562 L 33.871094 25.851562 C 33.675781 25.851562 33.515625 25.695312 33.515625 25.503906 C 33.515625 25.3125 33.675781 25.15625 33.871094 25.15625 L 39.417969 25.15625 C 39.613281 25.15625 39.769531 25.3125 39.769531 25.503906 C 39.769531 25.695312 39.613281 25.851562 39.417969 25.851562 " fill-opacity="1" fill-rule="nonzero"/></g><path fill="#17407a" d="M 36.523438 31.199219 L 33.871094 31.199219 C 33.675781 31.199219 33.515625 31.042969 33.515625 30.851562 C 33.515625 30.660156 33.675781 30.503906 33.871094 30.503906 L 36.523438 30.503906 C 36.71875 30.503906 36.875 30.660156 36.875 30.851562 C 36.875 31.042969 36.71875 31.199219 36.523438 31.199219 " fill-opacity="1" fill-rule="nonzero"/><path fill="#17407a" d="M 36.523438 35.914062 L 33.871094 35.914062 C 33.675781 35.914062 33.515625 35.757812 33.515625 35.566406 C 33.515625 35.375 33.675781 35.21875 33.871094 35.21875 L 36.523438 35.21875 C 36.71875 35.21875 36.875 35.375 36.875 35.566406 C 36.875 35.757812 36.71875 35.914062 36.523438 35.914062 " fill-opacity="1" fill-rule="nonzero"/><path fill="#17407a" d="M 36.523438 40.628906 L 32.691406 40.628906 C 32.496094 40.628906 32.339844 40.472656 32.339844 40.28125 C 32.339844 40.089844 32.496094 39.933594 32.691406 39.933594 L 36.523438 39.933594 C 36.71875 39.933594 36.875 40.089844 36.875 40.28125 C 36.875 40.472656 36.71875 40.628906 36.523438 40.628906 " fill-opacity="1" fill-rule="nonzero"/><g clip-path="url(#dc0ecf701c)"><path fill="#ffffff" d="M 0.28125 20.632812 L 33.292969 20.632812 L 33.292969 13.050781 C 33.292969 13.050781 23.238281 12.625 14.207031 12.992188 C 8.609375 13.21875 2.722656 12.933594 0.992188 13.449219 C 0.199219 13.683594 0.582031 15.558594 0.527344 16.980469 C 0.460938 18.859375 0.28125 20.632812 0.28125 20.632812 " fill-opacity="1" fill-rule="nonzero"/></g><g clip-path="url(#a6c231ddfe)"><path fill="#ffffff" d="M 0.914062 20.460938 L 33.695312 20.226562 L 33.984375 39.464844 L 33.320312 40.214844 L 1.855469 40.394531 L 0.625 39.8125 L 0.945312 20.683594 L 0.914062 20.460938 " fill-opacity="1" fill-rule="nonzero"/></g><path fill="#ff8787" d="M 3.070312 20.378906 L 33.652344 20.246094 L 33.652344 15.546875 C 33.652344 15.546875 20.117188 15.257812 10.445312 15.453125 C 7.117188 15.515625 4.359375 15.210938 3.277344 15.929688 C 2.792969 16.253906 3.070312 20.378906 3.070312 20.378906 " fill-opacity="1" fill-rule="nonzero"/><path fill="#ffce54" d="M 3.035156 20.261719 L 33.613281 20.195312 L 33.78125 38.996094 L 33.34375 40.015625 L 3.683594 40.085938 C 3.683594 40.085938 2.960938 39.632812 2.949219 39.292969 C 2.695312 33.308594 3.0625 20.480469 3.0625 20.480469 L 3.035156 20.261719 " fill-opacity="1" fill-rule="nonzero"/><g clip-path="url(#51c73fdc09)"><path fill="#17407a" d="M 8.757812 22.53125 C 7.207031 22.53125 5.949219 21.289062 5.949219 19.761719 L 5.949219 9.886719 C 5.949219 7.933594 7.558594 6.34375 9.539062 6.34375 C 11.515625 6.34375 13.125 7.933594 13.125 9.886719 L 13.125 13.066406 C 13.125 13.257812 12.96875 13.414062 12.773438 13.414062 C 12.578125 13.414062 12.421875 13.257812 12.421875 13.066406 L 12.421875 9.886719 C 12.421875 8.316406 11.128906 7.039062 9.539062 7.039062 C 7.949219 7.039062 6.652344 8.316406 6.652344 9.886719 L 6.652344 19.761719 C 6.652344 20.90625 7.597656 21.835938 8.757812 21.835938 C 9.917969 21.835938 10.859375 20.90625 10.859375 19.761719 L 10.859375 11.214844 C 10.859375 11.023438 11.019531 10.867188 11.214844 10.867188 C 11.40625 10.867188 11.566406 11.023438 11.566406 11.214844 L 11.566406 19.761719 C 11.566406 21.289062 10.304688 22.53125 8.757812 22.53125 " fill-opacity="1" fill-rule="nonzero"/></g><path fill="#17407a" d="M 30.972656 25.851562 L 3.394531 25.851562 C 3.199219 25.851562 3.042969 25.695312 3.042969 25.503906 C 3.042969 25.3125 3.199219 25.15625 3.394531 25.15625 L 30.972656 25.15625 C 31.167969 25.15625 31.324219 25.3125 31.324219 25.503906 C 31.324219 25.695312 31.167969 25.851562 30.972656 25.851562 " fill-opacity="1" fill-rule="nonzero"/><path fill="#17407a" d="M 30.972656 30.566406 L 3.394531 30.566406 C 3.199219 30.566406 3.042969 30.410156 3.042969 30.21875 C 3.042969 30.027344 3.199219 29.871094 3.394531 29.871094 L 30.972656 29.871094 C 31.167969 29.871094 31.324219 30.027344 31.324219 30.21875 C 31.324219 30.410156 31.167969 30.566406 30.972656 30.566406 " fill-opacity="1" fill-rule="nonzero"/><path fill="#17407a" d="M 30.972656 35.28125 L 3.394531 35.28125 C 3.199219 35.28125 3.042969 35.125 3.042969 34.933594 C 3.042969 34.742188 3.199219 34.585938 3.394531 34.585938 L 30.972656 34.585938 C 31.167969 34.585938 31.324219 34.742188 31.324219 34.933594 C 31.324219 35.125 31.167969 35.28125 30.972656 35.28125 " fill-opacity="1" fill-rule="nonzero"/><g clip-path="url(#25228a5a56)"><path fill="#17407a" d="M 4.863281 20.503906 L 0.496094 20.503906 C 0.300781 20.503906 0.144531 20.347656 0.144531 20.15625 C 0.144531 19.964844 0.300781 19.808594 0.496094 19.808594 L 4.863281 19.808594 C 5.058594 19.808594 5.214844 19.964844 5.214844 20.15625 C 5.214844 20.347656 5.058594 20.503906 4.863281 20.503906 " fill-opacity="1" fill-rule="nonzero"/></g><path fill="#17407a" d="M 9.539062 20.503906 L 7.980469 20.503906 C 7.785156 20.503906 7.628906 20.347656 7.628906 20.15625 C 7.628906 19.964844 7.785156 19.808594 7.980469 19.808594 L 9.539062 19.808594 C 9.730469 19.808594 9.890625 19.964844 9.890625 20.15625 C 9.890625 20.347656 9.730469 20.503906 9.539062 20.503906 " fill-opacity="1" fill-rule="nonzero"/><path fill="#17407a" d="M 33.871094 20.503906 L 12.785156 20.503906 C 12.589844 20.503906 12.429688 20.347656 12.429688 20.15625 C 12.429688 19.964844 12.589844 19.808594 12.785156 19.808594 L 33.871094 19.808594 C 34.0625 19.808594 34.222656 19.964844 34.222656 20.15625 C 34.222656 20.347656 34.0625 20.503906 33.871094 20.503906 " fill-opacity="1" fill-rule="nonzero"/><g clip-path="url(#c453a30d5d)"><path fill="#17407a" d="M 32.691406 40.628906 L 1.675781 40.628906 C 0.832031 40.628906 0.144531 39.949219 0.144531 39.117188 L 0.144531 14.230469 C 0.144531 13.394531 0.832031 12.71875 1.675781 12.71875 L 4.863281 12.71875 C 5.058594 12.71875 5.214844 12.875 5.214844 13.066406 C 5.214844 13.257812 5.058594 13.414062 4.863281 13.414062 L 1.675781 13.414062 C 1.21875 13.414062 0.847656 13.777344 0.847656 14.230469 L 0.847656 39.117188 C 0.847656 39.566406 1.21875 39.933594 1.675781 39.933594 L 32.691406 39.933594 C 33.144531 39.933594 33.515625 39.566406 33.515625 39.117188 L 33.515625 14.230469 C 33.515625 13.777344 33.144531 13.414062 32.691406 13.414062 L 14.039062 13.414062 C 13.84375 13.414062 13.683594 13.257812 13.683594 13.066406 C 13.683594 12.875 13.84375 12.71875 14.039062 12.71875 L 32.691406 12.71875 C 33.535156 12.71875 34.222656 13.394531 34.222656 14.230469 L 34.222656 39.117188 C 34.222656 39.949219 33.535156 40.628906 32.691406 40.628906 " fill-opacity="1" fill-rule="nonzero"/></g><path fill="#17407a" d="M 9.765625 13.414062 L 7.679688 13.414062 C 7.484375 13.414062 7.328125 13.257812 7.328125 13.066406 C 7.328125 12.871094 7.484375 12.71875 7.679688 12.71875 L 9.765625 12.71875 C 9.960938 12.71875 10.117188 12.871094 10.117188 13.066406 C 10.117188 13.257812 9.960938 13.414062 9.765625 13.414062 " fill-opacity="1" fill-rule="nonzero"/><g clip-path="url(#67f52d0fe5)"><path fill="#a4a6a9" d="M 81.058594 24.992188 L 81.058594 24.996094 L 48.328125 24.996094 L 48.328125 24.992188 C 48.328125 23.90625 49.320312 23.027344 50.546875 23.027344 L 78.839844 23.027344 C 80.066406 23.03125 81.058594 23.90625 81.058594 24.992188 " fill-opacity="1" fill-rule="nonzero"/></g><g clip-path="url(#96d2cffafc)"><path fill="#a4a6a9" d="M 82.519531 42.386719 L 82.519531 43.925781 C 82.519531 45.058594 81.441406 45.976562 80.117188 45.976562 L 49.535156 45.976562 C 48.210938 45.976562 47.136719 45.058594 47.136719 43.925781 L 47.136719 42.386719 L 59.511719 42.386719 L 59.511719 42.933594 C 59.511719 43.40625 59.921875 43.789062 60.425781 43.789062 L 67.699219 43.789062 C 68.207031 43.789062 68.617188 43.40625 68.617188 42.933594 L 68.617188 42.386719 L 82.519531 42.386719 " fill-opacity="1" fill-rule="nonzero"/></g><g clip-path="url(#2894665952)"><path fill="#aee4f0" d="M 81.058594 24.996094 L 81.058594 42.386719 L 68.617188 42.386719 L 68.617188 42.933594 C 68.617188 43.40625 68.207031 43.789062 67.699219 43.789062 L 60.425781 43.789062 C 59.921875 43.789062 59.511719 43.40625 59.511719 42.933594 L 59.511719 42.386719 L 48.328125 42.386719 L 48.328125 24.996094 L 81.058594 24.996094 " fill-opacity="1" fill-rule="nonzero"/></g><path fill="#499fb7" d="M 51.882812 9.652344 L 74.152344 9.652344 L 74.152344 38.609375 L 51.882812 38.609375 L 51.882812 9.652344 " fill-opacity="1" fill-rule="nonzero"/><path fill="#6bc4e5" d="M 74.679688 15.113281 L 74.679688 40.03125 L 53.871094 40.03125 L 53.871094 11.25 L 70.792969 11.25 L 74.679688 15.113281 " fill-opacity="1" fill-rule="nonzero"/><path fill="#5bb5ce" d="M 74.679688 15.113281 L 70.792969 15.113281 L 70.792969 11.25 Z M 74.679688 15.113281 " fill-opacity="1" fill-rule="nonzero"/><path fill="#505256" d="M 77.015625 35.34375 L 77.015625 35.480469 L 76.167969 36.914062 L 75.484375 38.070312 C 75.296875 38.386719 74.667969 38.386719 74.488281 38.066406 L 73.832031 36.902344 L 73.023438 35.464844 L 73.027344 35.328125 L 77.015625 35.34375 " fill-opacity="1" fill-rule="nonzero"/><path fill="#a4a6a9" d="M 73.015625 20.136719 L 77.015625 20.136719 L 77.015625 35.34375 L 73.015625 35.34375 L 73.015625 20.136719 " fill-opacity="1" fill-rule="nonzero"/><path fill="#505256" d="M 77.015625 18.867188 L 77.007812 20.390625 L 73.015625 20.390625 L 73.035156 18.84375 C 73.042969 18.140625 73.742188 17.574219 74.597656 17.578125 L 75.472656 17.582031 C 76.328125 17.585938 77.023438 18.160156 77.015625 18.867188 " fill-opacity="1" fill-rule="nonzero"/><path fill="#505256" d="M 74.554688 20.390625 L 75.488281 20.390625 L 75.488281 35.34375 L 74.554688 35.34375 L 74.554688 20.390625 " fill-opacity="1" fill-rule="nonzero"/><path fill="#505256" d="M 58.355469 22.964844 C 57.886719 22.964844 57.507812 23.34375 57.507812 23.808594 C 57.507812 24.273438 57.886719 24.652344 58.355469 24.652344 C 58.824219 24.652344 59.203125 24.273438 59.203125 23.808594 C 59.203125 23.34375 58.824219 22.96875 58.355469 22.964844 Z M 58.355469 25.578125 C 57.375 25.578125 56.578125 24.785156 56.578125 23.808594 C 56.578125 22.832031 57.375 22.039062 58.355469 22.039062 C 59.339844 22.039062 60.136719 22.832031 60.136719 23.808594 C 60.132812 24.785156 59.339844 25.578125 58.355469 25.578125 " fill-opacity="1" fill-rule="nonzero"/><path fill="#505256" d="M 58.355469 28.6875 C 57.886719 28.6875 57.507812 29.066406 57.507812 29.53125 C 57.507812 29.996094 57.886719 30.375 58.355469 30.375 C 58.824219 30.375 59.203125 29.996094 59.203125 29.53125 C 59.203125 29.066406 58.824219 28.6875 58.355469 28.6875 Z M 58.355469 31.300781 C 57.375 31.300781 56.578125 30.507812 56.578125 29.53125 C 56.578125 28.554688 57.375 27.761719 58.355469 27.761719 C 59.339844 27.761719 60.136719 28.554688 60.136719 29.53125 C 60.132812 30.507812 59.339844 31.300781 58.355469 31.300781 " fill-opacity="1" fill-rule="nonzero"/><path fill="#505256" d="M 63.285156 15.496094 L 69.1875 15.496094 L 69.1875 16.425781 L 63.285156 16.425781 L 63.285156 15.496094 " fill-opacity="1" fill-rule="nonzero"/><path fill="#505256" d="M 63.285156 17.816406 L 69.1875 17.816406 L 69.1875 18.746094 L 63.285156 18.746094 L 63.285156 17.816406 " fill-opacity="1" fill-rule="nonzero"/><path fill="#505256" d="M 61.375 22.039062 L 70.792969 22.039062 L 70.792969 22.964844 L 61.375 22.964844 L 61.375 22.039062 " fill-opacity="1" fill-rule="nonzero"/><path fill="#505256" d="M 61.375 24.171875 L 68.972656 24.171875 L 68.972656 25.097656 L 61.375 25.097656 L 61.375 24.171875 " fill-opacity="1" fill-rule="nonzero"/><path fill="#505256" d="M 61.375 27.761719 L 70.792969 27.761719 L 70.792969 28.6875 L 61.375 28.6875 L 61.375 27.761719 " fill-opacity="1" fill-rule="nonzero"/><path fill="#505256" d="M 61.375 29.890625 L 68.972656 29.890625 L 68.972656 30.820312 L 61.375 30.820312 L 61.375 29.890625 " fill-opacity="1" fill-rule="nonzero"/><path fill="#505256" d="M 61.375 34.113281 L 70.792969 34.113281 L 70.792969 35.039062 L 61.375 35.039062 L 61.375 34.113281 " fill-opacity="1" fill-rule="nonzero"/><path fill="#505256" d="M 61.375 36.242188 L 68.972656 36.242188 L 68.972656 37.171875 L 61.375 37.171875 L 61.375 36.242188 " fill-opacity="1" fill-rule="nonzero"/><path fill="#505256" d="M 58.355469 35.039062 C 57.886719 35.039062 57.507812 35.417969 57.507812 35.882812 C 57.507812 36.347656 57.886719 36.726562 58.355469 36.726562 C 58.824219 36.726562 59.203125 36.347656 59.203125 35.882812 C 59.203125 35.417969 58.824219 35.039062 58.355469 35.039062 Z M 58.355469 37.652344 C 57.375 37.652344 56.578125 36.859375 56.578125 35.882812 C 56.578125 34.90625 57.375 34.113281 58.355469 34.113281 C 59.339844 34.113281 60.136719 34.90625 60.136719 35.882812 C 60.132812 36.859375 59.339844 37.652344 58.355469 37.652344 " fill-opacity="1" fill-rule="nonzero"/><g clip-path="url(#93cc789a94)"><path fill="#f8bb0b" d="M 50.246094 20.625 L 52.347656 20.625 L 55.660156 24.632812 L 55.660156 20.625 L 60.375 20.625 C 61.640625 20.625 62.664062 19.605469 62.664062 18.34375 L 62.621094 8.625 C 62.621094 7.367188 61.59375 6.347656 60.328125 6.34375 L 50.203125 6.34375 C 48.9375 6.34375 47.910156 7.367188 47.910156 8.625 L 47.957031 18.34375 C 47.953125 19.605469 48.980469 20.625 50.246094 20.625 " fill-opacity="1" fill-rule="nonzero"/></g><path fill="#505256" d="M 54.425781 18.941406 L 54.425781 17.441406 L 56.101562 17.441406 L 56.101562 18.941406 Z M 56.113281 16.183594 L 54.425781 16.183594 C 54.421875 15.914062 54.421875 15.75 54.421875 15.691406 C 54.421875 15.089844 54.511719 14.59375 54.691406 14.203125 C 54.871094 13.8125 55.234375 13.375 55.773438 12.890625 C 56.316406 12.402344 56.640625 12.085938 56.746094 11.933594 C 56.90625 11.703125 56.992188 11.425781 56.988281 11.144531 C 56.996094 10.757812 56.839844 10.386719 56.558594 10.117188 C 56.269531 9.832031 55.878906 9.691406 55.390625 9.691406 C 54.953125 9.679688 54.527344 9.839844 54.210938 10.136719 C 53.890625 10.433594 53.675781 10.886719 53.554688 11.496094 L 51.851562 11.261719 C 51.886719 10.417969 52.246094 9.625 52.859375 9.042969 C 53.480469 8.433594 54.300781 8.128906 55.3125 8.128906 C 56.378906 8.128906 57.226562 8.4375 57.855469 9.050781 C 58.484375 9.667969 58.800781 10.386719 58.800781 11.203125 C 58.800781 11.65625 58.679688 12.097656 58.453125 12.488281 C 58.222656 12.890625 57.726562 13.441406 56.96875 14.136719 C 56.578125 14.5 56.335938 14.789062 56.238281 15.007812 C 56.144531 15.226562 56.101562 15.617188 56.113281 16.183594 " fill-opacity="1" fill-rule="nonzero"/><path fill="#f8bb0b" d="M 58.042969 29.1875 L 60.042969 27.394531 L 60.667969 28.082031 L 58.667969 29.875 L 58.042969 29.1875 " fill-opacity="1" fill-rule="nonzero"/></svg>