<svg xmlns="http://www.w3.org/2000/svg" xmlns:xlink="http://www.w3.org/1999/xlink" width="40" zoomAndPan="magnify" viewBox="0 0 30 30.000001" height="40" preserveAspectRatio="xMidYMid meet" version="1.0"><defs><clipPath id="030b8b7ec7"><path d="M 3.386719 7 L 27.339844 7 L 27.339844 29.03125 L 3.386719 29.03125 Z M 3.386719 7 " clip-rule="nonzero"/></clipPath></defs><g clip-path="url(#030b8b7ec7)"><path fill="#a2aaad" d="M 27.199219 20.160156 C 27.101562 20.015625 26.949219 19.914062 26.769531 19.890625 C 24.433594 19.589844 22.785156 17.480469 23.089844 15.171875 C 23.304688 13.546875 24.460938 12.191406 26.054688 11.703125 C 26.378906 11.601562 26.554688 11.261719 26.453125 10.945312 C 26.433594 10.894531 26.410156 10.847656 26.382812 10.804688 C 25.3125 8.898438 23.402344 7.585938 21.214844 7.25 C 20.109375 7.300781 19.027344 7.53125 17.996094 7.929688 C 17.257812 8.222656 16.476562 8.398438 15.6875 8.460938 C 14.894531 8.40625 14.117188 8.222656 13.378906 7.929688 C 12.355469 7.53125 11.265625 7.300781 10.164062 7.25 C 7.867188 7.253906 3.40625 10.457031 3.40625 16.324219 C 3.40625 21.902344 7.539062 29.019531 10.773438 29.019531 C 12.011719 29.03125 13.230469 28.753906 14.335938 28.210938 C 14.75 27.984375 15.210938 27.847656 15.6875 27.808594 C 16.160156 27.847656 16.621094 27.984375 17.039062 28.210938 C 18.144531 28.753906 19.367188 29.027344 20.605469 29.019531 C 23.171875 29.019531 26.066406 24.683594 27.28125 20.660156 C 27.320312 20.492188 27.292969 20.308594 27.199219 20.160156 Z M 27.199219 20.160156 " fill-opacity="1" fill-rule="nonzero"/></g><path fill="#a2aaad" d="M 15.066406 7.253906 C 18.796875 7.25 21.820312 4.273438 21.820312 0.605469 C 21.820312 0.273438 21.542969 0 21.203125 0 C 17.476562 0.00390625 14.457031 2.980469 14.457031 6.648438 C 14.457031 6.984375 14.726562 7.253906 15.066406 7.253906 Z M 15.066406 7.253906 " fill-opacity="1" fill-rule="nonzero"/></svg>