<svg xmlns="http://www.w3.org/2000/svg" xmlns:xlink="http://www.w3.org/1999/xlink" width="40" zoomAndPan="magnify" viewBox="0 0 30 30.000001" height="40" preserveAspectRatio="xMidYMid meet" version="1.0"><defs><clipPath id="39b854f7cb"><path d="M 0.484375 4 L 29.515625 4 L 29.515625 25 L 0.484375 25 Z M 0.484375 4 " clip-rule="nonzero"/></clipPath><clipPath id="301d42dbe7"><path d="M 0.484375 4 L 5 4 L 5 25 L 0.484375 25 Z M 0.484375 4 " clip-rule="nonzero"/></clipPath><clipPath id="403650efdf"><path d="M 0.484375 4 L 29.515625 4 L 29.515625 25 L 0.484375 25 Z M 0.484375 4 " clip-rule="nonzero"/></clipPath><clipPath id="1de671a258"><path d="M 25 4 L 29.515625 4 L 29.515625 25 L 25 25 Z M 25 4 " clip-rule="nonzero"/></clipPath><clipPath id="8a15c78b1a"><path d="M 0.484375 6 L 29.515625 6 L 29.515625 25 L 0.484375 25 Z M 0.484375 6 " clip-rule="nonzero"/></clipPath><clipPath id="57003d2583"><path d="M 0.484375 4 L 29.515625 4 L 29.515625 18 L 0.484375 18 Z M 0.484375 4 " clip-rule="nonzero"/></clipPath></defs><g clip-path="url(#39b854f7cb)"><path fill="#f2f2f2" d="M 27.410156 24.929688 L 2.585938 24.929688 C 1.617188 24.929688 0.804688 24.164062 0.804688 23.175781 L 0.804688 6.058594 C 0.804688 5.820312 0.851562 5.59375 0.941406 5.378906 C 1.03125 5.160156 1.160156 4.96875 1.328125 4.804688 C 1.492188 4.636719 1.6875 4.507812 1.90625 4.417969 C 2.121094 4.328125 2.351562 4.28125 2.585938 4.28125 L 27.410156 4.28125 C 28.378906 4.28125 29.191406 5.078125 29.191406 6.058594 L 29.191406 23.152344 C 29.167969 24.164062 28.378906 24.929688 27.410156 24.929688 Z M 27.410156 24.929688 " fill-opacity="1" fill-rule="nonzero"/></g><path fill="#221f1f" d="M 4.351562 24.929688 L 14.972656 17.179688 L 15.039062 16.730469 L 4.085938 8.890625 L 4.066406 24.546875 Z M 4.351562 24.929688 " fill-opacity="0.1" fill-rule="nonzero"/><g clip-path="url(#301d42dbe7)"><path fill="#d44c3d" d="M 2.585938 24.929688 C 1.601562 24.929688 0.804688 24.164062 0.804688 23.175781 L 0.804688 6.035156 C 0.804688 5.046875 1.601562 4.867188 2.585938 4.867188 C 3.570312 4.867188 4.367188 5.070312 4.367188 6.035156 L 4.367188 24.929688 Z M 2.585938 24.929688 " fill-opacity="1" fill-rule="nonzero"/></g><g clip-path="url(#403650efdf)"><path fill="#d44c3d" d="M 2.585938 5.136719 C 3.847656 5.136719 4.097656 5.515625 4.097656 6.035156 L 4.097656 24.679688 L 2.585938 24.679688 C 1.75 24.679688 1.074219 24.007812 1.074219 23.175781 L 1.074219 6.035156 C 1.050781 5.503906 1.324219 5.136719 2.585938 5.136719 Z M 2.585938 4.886719 C 1.601562 4.890625 0.804688 5.089844 0.804688 6.035156 L 0.804688 23.152344 C 0.800781 23.386719 0.84375 23.617188 0.933594 23.835938 C 1.023438 24.054688 1.152344 24.246094 1.320312 24.414062 C 1.484375 24.582031 1.679688 24.710938 1.898438 24.800781 C 2.121094 24.886719 2.347656 24.929688 2.585938 24.929688 L 4.367188 24.929688 L 4.367188 6.035156 C 4.351562 5.066406 3.578125 4.890625 2.585938 4.890625 Z M 27.410156 5.136719 C 28.558594 5.136719 28.921875 5.359375 28.921875 5.988281 L 28.921875 23.199219 C 28.921875 24.03125 28.242188 24.703125 27.410156 24.703125 L 25.898438 24.703125 L 25.898438 5.988281 C 25.875 5.339844 26.257812 5.136719 27.410156 5.136719 Z M 27.410156 4.886719 C 26.417969 4.886719 25.628906 5.023438 25.628906 5.988281 L 25.628906 24.949219 L 27.410156 24.949219 C 28.402344 24.949219 29.191406 24.152344 29.191406 23.175781 L 29.191406 5.964844 C 29.167969 5 28.378906 4.886719 27.410156 4.886719 Z M 27.410156 4.886719 " fill-opacity="1" fill-rule="nonzero"/></g><g clip-path="url(#1de671a258)"><path fill="#d44c3d" d="M 27.410156 24.929688 L 25.628906 24.929688 L 25.628906 5.988281 C 25.628906 5 26.425781 4.890625 27.410156 4.890625 C 28.390625 4.890625 29.191406 5.023438 29.191406 5.988281 L 29.191406 23.199219 C 29.1875 23.429688 29.136719 23.652344 29.042969 23.863281 C 28.953125 24.078125 28.820312 24.265625 28.65625 24.425781 C 28.488281 24.589844 28.296875 24.714844 28.082031 24.800781 C 27.867188 24.886719 27.640625 24.929688 27.410156 24.929688 Z M 27.410156 24.929688 " fill-opacity="1" fill-rule="nonzero"/></g><g clip-path="url(#8a15c78b1a)"><path fill="#221f1f" d="M 19.8125 24.929688 L 0.960938 6.785156 L 1.953125 7.191406 L 15.085938 16.605469 L 29.191406 6.28125 L 29.191406 23.199219 C 29.1875 23.433594 29.144531 23.65625 29.050781 23.875 C 28.960938 24.089844 28.832031 24.277344 28.664062 24.445312 C 28.496094 24.609375 28.304688 24.734375 28.085938 24.824219 C 27.871094 24.910156 27.644531 24.953125 27.40625 24.949219 Z M 19.8125 24.929688 " fill-opacity="0.08" fill-rule="nonzero"/></g><g clip-path="url(#57003d2583)"><path fill="#d44c3d" d="M 14.964844 17.203125 L 1.570312 7.519531 C 0.773438 6.933594 0.554688 5.8125 1.140625 5.023438 C 1.730469 4.238281 2.855469 4.058594 3.667969 4.640625 L 14.984375 12.84375 L 26.371094 4.53125 C 27.171875 3.945312 28.265625 4.125 28.851562 4.933594 C 29.4375 5.730469 29.257812 6.824219 28.445312 7.40625 Z M 14.964844 17.203125 " fill-opacity="1" fill-rule="nonzero"/><path fill="#d44c3d" d="M 27.410156 4.460938 C 27.882812 4.460938 28.355469 4.6875 28.648438 5.089844 C 29.125 5.765625 28.988281 6.710938 28.3125 7.214844 L 14.964844 16.890625 L 1.730469 7.316406 C 1.050781 6.820312 0.871094 5.855469 1.335938 5.195312 C 1.605469 4.789062 2.082031 4.542969 2.597656 4.542969 C 2.9375 4.542969 3.253906 4.632812 3.5 4.832031 L 14.796875 13.015625 L 14.953125 13.105469 L 15.109375 13.015625 L 26.484375 4.707031 C 26.777344 4.550781 27.070312 4.460938 27.410156 4.460938 Z M 27.410156 4.191406 C 27.046875 4.191406 26.664062 4.28125 26.371094 4.527344 L 14.984375 12.84375 L 3.644531 4.617188 C 3.351562 4.394531 2.96875 4.28125 2.585938 4.28125 C 2.023438 4.304688 1.457031 4.550781 1.121094 5.027344 C 0.554688 5.820312 0.78125 6.914062 1.570312 7.496094 L 14.964844 17.203125 L 28.445312 7.40625 C 28.636719 7.265625 28.792969 7.097656 28.914062 6.898438 C 29.039062 6.699219 29.117188 6.484375 29.15625 6.25 C 29.195312 6.019531 29.1875 5.789062 29.132812 5.5625 C 29.082031 5.335938 28.988281 5.125 28.851562 4.933594 C 28.492188 4.460938 27.949219 4.191406 27.410156 4.191406 Z M 27.410156 4.191406 " fill-opacity="1" fill-rule="nonzero"/></g></svg>