<svg xmlns="http://www.w3.org/2000/svg" xmlns:xlink="http://www.w3.org/1999/xlink" width="40" zoomAndPan="magnify" viewBox="0 0 30 30.000001" height="40" preserveAspectRatio="xMidYMid meet" version="1.0"><defs><clipPath id="d95ee0564b"><path d="M 0.484375 0 L 29.515625 0 L 29.515625 29.03125 L 0.484375 29.03125 Z M 0.484375 0 " clip-rule="nonzero"/></clipPath></defs><g clip-path="url(#d95ee0564b)"><path fill="#37aee2" d="M 4.839844 0 L 25.160156 0 C 25.445312 0 25.730469 0.0273438 26.011719 0.0820312 C 26.292969 0.140625 26.5625 0.222656 26.828125 0.332031 C 27.09375 0.441406 27.34375 0.574219 27.582031 0.734375 C 27.820312 0.894531 28.039062 1.074219 28.242188 1.277344 C 28.441406 1.476562 28.625 1.699219 28.78125 1.933594 C 28.941406 2.171875 29.074219 2.425781 29.183594 2.6875 C 29.292969 2.953125 29.375 3.226562 29.433594 3.503906 C 29.488281 3.785156 29.515625 4.070312 29.515625 4.355469 L 29.515625 24.675781 C 29.515625 24.964844 29.488281 25.246094 29.433594 25.527344 C 29.375 25.808594 29.292969 26.078125 29.183594 26.34375 C 29.074219 26.609375 28.941406 26.859375 28.78125 27.097656 C 28.625 27.335938 28.441406 27.554688 28.242188 27.757812 C 28.039062 27.957031 27.820312 28.140625 27.582031 28.296875 C 27.34375 28.457031 27.09375 28.589844 26.828125 28.699219 C 26.5625 28.808594 26.292969 28.894531 26.011719 28.949219 C 25.730469 29.003906 25.445312 29.03125 25.160156 29.03125 L 4.839844 29.03125 C 4.554688 29.03125 4.269531 29.003906 3.988281 28.949219 C 3.707031 28.894531 3.4375 28.808594 3.171875 28.699219 C 2.90625 28.589844 2.65625 28.457031 2.417969 28.296875 C 2.179688 28.140625 1.960938 27.957031 1.757812 27.757812 C 1.558594 27.554688 1.375 27.335938 1.21875 27.097656 C 1.058594 26.859375 0.925781 26.609375 0.816406 26.34375 C 0.707031 26.078125 0.625 25.808594 0.566406 25.527344 C 0.511719 25.246094 0.484375 24.964844 0.484375 24.675781 L 0.484375 4.355469 C 0.484375 4.070312 0.511719 3.785156 0.566406 3.503906 C 0.625 3.226562 0.707031 2.953125 0.816406 2.6875 C 0.925781 2.425781 1.058594 2.171875 1.21875 1.933594 C 1.375 1.699219 1.558594 1.476562 1.757812 1.277344 C 1.960938 1.074219 2.179688 0.894531 2.417969 0.734375 C 2.65625 0.574219 2.90625 0.441406 3.171875 0.332031 C 3.4375 0.222656 3.707031 0.140625 3.988281 0.0820312 C 4.269531 0.0273438 4.554688 0 4.839844 0 Z M 4.839844 0 " fill-opacity="1" fill-rule="nonzero"/></g><path fill="#c8daea" d="M 11.769531 22.910156 C 11.144531 22.910156 11.199219 22.679688 11.03125 22.113281 L 9.214844 16.160156 L 23.109375 7.996094 " fill-opacity="1" fill-rule="nonzero"/><path fill="#a9c9dd" d="M 11.769531 22.910156 C 12.164062 22.910156 12.390625 22.679688 12.675781 22.453125 L 15.226562 20.015625 L 12.050781 18.089844 " fill-opacity="1" fill-rule="nonzero"/><path fill="#f6fbfe" d="M 12.050781 18.089844 L 19.707031 23.703125 C 20.5 24.210938 21.179688 23.929688 21.40625 22.910156 L 24.527344 8.277344 C 24.808594 7.03125 24.015625 6.464844 23.164062 6.859375 L 4.964844 13.890625 C 3.773438 14.347656 3.773438 15.082031 4.738281 15.367188 L 9.441406 16.839844 L 20.214844 9.980469 C 20.726562 9.695312 21.179688 9.808594 20.839844 10.207031 " fill-opacity="1" fill-rule="nonzero"/></svg>