<svg width="148" height="148" fill="none" xmlns="http://www.w3.org/2000/svg"><path d="M124.479 74.044c-1.898-14.417-18.819-47.43-18.819-47.43-1.144-2.732-5.809-2.766-6.94 0L92.9 36.669 79.58 11.772c-1.635-3.673-8.313-3.719-9.925 0 0 0-7.157 10.847-14.863 24.312l-5.466-9.436c-1.143-2.743-5.797-2.709-6.94 0 0 0-16.922 33.013-18.82 47.43a52.405 52.405 0 0 0-.444 23.505 52.294 52.294 0 0 0 9.874 21.317 52.038 52.038 0 0 0 18.189 14.807 51.83 51.83 0 0 0 45.63 0 52.038 52.038 0 0 0 18.189-14.807 52.29 52.29 0 0 0 9.874-21.317 52.407 52.407 0 0 0-.444-23.505l.045-.034Z" fill="#FF983A"/><path d="M103 62.362a6.641 6.641 0 0 0-1.971-4.714 6.754 6.754 0 0 0-4.754-1.952H51.721a6.75 6.75 0 0 0-4.752 1.953A6.638 6.638 0 0 0 45 62.361v9.63h58v-9.63Z" fill="#F6406C"/><path d="M45 71.922v40.404a6.633 6.633 0 0 0 1.968 4.719 6.714 6.714 0 0 0 2.181 1.447 6.77 6.77 0 0 0 2.572.508h44.554a6.748 6.748 0 0 0 4.754-1.955 6.651 6.651 0 0 0 1.971-4.719V71.922H45Z" fill="#FFE8D8"/><path fill-rule="evenodd" clip-rule="evenodd" d="M56.782 51c1.674 0 3.03 1.373 3.03 3.067v7.446c0 1.694-1.356 3.067-3.03 3.067-1.674 0-3.031-1.373-3.031-3.067v-7.446c0-1.694 1.357-3.067 3.03-3.067ZM91.229 51c1.674 0 3.03 1.373 3.03 3.067v7.446c0 1.694-1.356 3.067-3.03 3.067-1.674 0-3.03-1.373-3.03-3.067v-7.446c0-1.694 1.356-3.067 3.03-3.067Z" fill="#FFE8D8"/></svg>